<svg width="1536" height="1024" viewBox="0 0 1536 1024" fill="none" xmlns="http://www.w3.org/2000/svg">
  <defs>
    <linearGradient id="bg" x1="0" y1="0" x2="1536" y2="1024" gradientUnits="userSpaceOnUse">
      <stop stop-color="#050d1a"/>
      <stop offset="0.58" stop-color="#03101e"/>
      <stop offset="1" stop-color="#020a14"/>
    </linearGradient>
    <linearGradient id="brand" x1="16" y1="14" x2="48" y2="46" gradientUnits="userSpaceOnUse">
      <stop stop-color="#6758ff"/>
      <stop offset="1" stop-color="#27c7ff"/>
    </linearGradient>
    <linearGradient id="hero" x1="380" y1="79" x2="1511" y2="203" gradientUnits="userSpaceOnUse">
      <stop stop-color="#0c162b"/>
      <stop offset="0.48" stop-color="#081425"/>
      <stop offset="1" stop-color="#11152f"/>
    </linearGradient>
    <linearGradient id="purpleStroke" x1="380" y1="79" x2="1511" y2="203" gradientUnits="userSpaceOnUse">
      <stop stop-color="#6b31ea"/>
      <stop offset="0.45" stop-color="#322257"/>
      <stop offset="1" stop-color="#7b3cff"/>
    </linearGradient>
    <linearGradient id="logoHex" x1="397" y1="99" x2="457" y2="180" gradientUnits="userSpaceOnUse">
      <stop stop-color="#19294b"/>
      <stop offset="0.48" stop-color="#3c1c88"/>
      <stop offset="1" stop-color="#1e1550"/>
    </linearGradient>
    <linearGradient id="cardBg" x1="0" y1="0" x2="1" y2="1">
      <stop stop-color="#0d1a2e"/>
      <stop offset="1" stop-color="#081524"/>
    </linearGradient>
    <linearGradient id="controlBg" x1="380" y1="222" x2="1512" y2="293" gradientUnits="userSpaceOnUse">
      <stop stop-color="#081624"/>
      <stop offset="1" stop-color="#061121"/>
    </linearGradient>
    <filter id="softShadow" x="-20%" y="-20%" width="140%" height="140%">
      <feDropShadow dx="0" dy="18" stdDeviation="24" flood-color="#000814" flood-opacity="0.28"/>
    </filter>
    <filter id="purpleGlow" x="-40%" y="-40%" width="180%" height="180%">
      <feDropShadow dx="0" dy="0" stdDeviation="16" flood-color="#6f35ff" flood-opacity="0.42"/>
    </filter>
    <style>
      .font { font-family: "Inter", "PingFang SC", "Microsoft YaHei", sans-serif; }
      .top { fill: #e9eefc; font-size: 16px; font-weight: 700; }
      .nav { fill: #d8dfef; font-size: 15px; font-weight: 600; }
      .muted { fill: #8d9ab3; }
      .label { fill: #aeb9cf; font-size: 14px; font-weight: 500; }
      .title { fill: #f3f7ff; font-size: 18px; font-weight: 800; }
      .section { fill: #f0f4ff; font-size: 16px; font-weight: 800; }
      .pill { fill: #a4b0ca; font-size: 13px; font-weight: 600; }
      .pillActive { fill: #b46dff; font-size: 13px; font-weight: 700; }
      .card { fill: url(#cardBg); stroke: #1f314a; stroke-width: 1; }
      .cardTitle { fill: #f1f5ff; font-size: 18px; font-weight: 800; }
      .price { fill: #aab6cd; font-size: 14px; font-weight: 500; }
      .tag { fill: #d7d6ff; font-size: 12px; font-weight: 600; }
      .small { fill: #9ba8c0; font-size: 12px; font-weight: 500; }
      .count { fill: #f5f7ff; font-size: 24px; font-weight: 800; }
      .caption { fill: #8d9ab3; font-size: 12px; font-weight: 600; }
    </style>
  </defs>

  <rect width="1536" height="1024" fill="url(#bg)"/>
  <rect width="1536" height="60" fill="#020a15"/>
  <line x1="0" y1="60" x2="1536" y2="60" stroke="#142339"/>

  <g id="topbar" class="font">
    <rect x="16" y="14" width="32" height="32" rx="8" fill="url(#brand)"/>
    <text x="32" y="36" text-anchor="middle" fill="#ffffff" font-size="18" font-weight="800">G</text>
    <text x="62" y="35" class="top">G-Master API</text>
    <text x="214" y="35" class="nav">首页</text>
    <text x="281" y="35" class="nav">控制台</text>
    <rect x="348" y="15" width="82" height="31" rx="16" fill="#22124d" stroke="#6b3dff"/>
    <text x="389" y="35" text-anchor="middle" fill="#f6f2ff" font-size="15" font-weight="700">模型广场</text>
    <text x="456" y="35" class="nav">文档</text>

    <path d="M1266 36v-10a7 7 0 0 1 14 0v10l3 4h-20l3-4Z" stroke="#d5ddeb" stroke-width="1.5" stroke-linejoin="round"/>
    <circle cx="1284" cy="18" r="6" fill="#e85360"/>
    <text x="1284" y="22" text-anchor="middle" fill="#fff" font-size="8" font-weight="800">1</text>
    <path d="M1321 20a12 12 0 1 0 10 16.7 11.3 11.3 0 0 1-12-12.8 12 12 0 0 0 2-3.9Z" stroke="#d5ddeb" stroke-width="1.5"/>
    <text x="1363" y="36" text-anchor="middle" fill="#d5ddeb" font-size="19" font-weight="500">文</text>
    <path d="M1353 27h20M1363 17v4M1358 43c7-5 10-11 10-20" stroke="#d5ddeb" stroke-width="1.3" stroke-linecap="round"/>
    <rect x="1391" y="14" width="126" height="33" rx="17" fill="#071323" stroke="#14243a"/>
    <circle cx="1408" cy="30" r="12" fill="#18a5a8"/>
    <text x="1408" y="34" text-anchor="middle" fill="#fff" font-size="14" font-weight="800">M</text>
    <text x="1435" y="35" text-anchor="middle" fill="#dfe6f3" font-size="13" font-weight="700">reviewer</text>
    <path d="M1490 28l5 5 5-5" stroke="#dfe6f3" stroke-width="1.4" stroke-linecap="round" stroke-linejoin="round"/>
  </g>

  <g id="filters" class="font">
    <rect x="24" y="72" width="336" height="925" rx="14" fill="#071323" stroke="#203148"/>
    <text x="47" y="109" class="section">筛选</text>
    <rect x="287" y="88" width="62" height="28" rx="6" fill="#0b1728" stroke="#22344d"/>
    <text x="318" y="106" text-anchor="middle" fill="#8f9ab0" font-size="12" font-weight="600">重置</text>

    <text x="52" y="157" class="section">供应商</text>
    <line x1="117" y1="153" x2="325" y2="153" stroke="#1b2b42"/>
    <rect x="46" y="176" width="109" height="32" rx="9" fill="#160f38" stroke="#6533ff"/>
    <text x="100" y="196" text-anchor="middle" class="pillActive">全部供应商   6</text>
    <rect x="164" y="176" width="86" height="32" rx="9" fill="#071323" stroke="#203148"/>
    <text x="207" y="196" text-anchor="middle" class="pill">DeepSeek</text>
    <rect x="258" y="176" width="80" height="32" rx="9" fill="#071323" stroke="#203148"/>
    <text x="298" y="196" text-anchor="middle" class="pill">MiniMax</text>
    <rect x="46" y="218" width="92" height="32" rx="9" fill="#071323" stroke="#203148"/>
    <text x="92" y="238" text-anchor="middle" class="pill">Moonshot</text>
    <rect x="147" y="218" width="94" height="32" rx="9" fill="#071323" stroke="#203148"/>
    <text x="194" y="238" text-anchor="middle" class="pill">字节跳动</text>
    <rect x="249" y="218" width="67" height="32" rx="9" fill="#071323" stroke="#203148"/>
    <text x="282" y="238" text-anchor="middle" class="pill">智谱</text>
    <rect x="46" y="260" width="95" height="32" rx="9" fill="#071323" stroke="#203148"/>
    <text x="93" y="280" text-anchor="middle" class="pill">未知供应商</text>

    <text x="52" y="339" class="section">可用余额分组</text>
    <line x1="159" y1="335" x2="325" y2="335" stroke="#1b2b42"/>
    <rect x="48" y="360" width="81" height="32" rx="9" fill="#160f38" stroke="#6533ff"/>
    <text x="88" y="380" text-anchor="middle" class="pillActive">全部分组</text>
    <rect x="139" y="360" width="107" height="32" rx="9" fill="#071323" stroke="#203148"/>
    <text x="193" y="380" text-anchor="middle" class="pill">default   1x</text>
    <rect x="255" y="360" width="88" height="32" rx="9" fill="#071323" stroke="#203148"/>
    <text x="299" y="380" text-anchor="middle" class="pill">vip   1x</text>

    <text x="52" y="443" class="section">计费类型</text>
    <line x1="129" y1="439" x2="339" y2="439" stroke="#1b2b42"/>
    <rect x="48" y="465" width="81" height="32" rx="9" fill="#160f38" stroke="#6533ff"/>
    <text x="88" y="485" text-anchor="middle" class="pillActive">全部类型</text>
    <rect x="138" y="465" width="100" height="32" rx="9" fill="#071323" stroke="#203148"/>
    <text x="188" y="485" text-anchor="middle" class="pill">按量计费   8</text>
    <rect x="247" y="465" width="94" height="32" rx="9" fill="#071323" stroke="#203148"/>
    <text x="294" y="485" text-anchor="middle" class="pill">按次计费   2</text>

    <text x="52" y="548" class="section">标签</text>
    <line x1="91" y1="544" x2="339" y2="544" stroke="#1b2b42"/>
    <rect x="48" y="570" width="103" height="32" rx="9" fill="#160f38" stroke="#6533ff"/>
    <text x="99" y="590" text-anchor="middle" class="pillActive">全部标签   9</text>
    <rect x="159" y="570" width="78" height="32" rx="9" fill="#071323" stroke="#203148"/>
    <text x="198" y="590" text-anchor="middle" class="pill">204.8k</text>
    <rect x="245" y="570" width="94" height="32" rx="9" fill="#071323" stroke="#203148"/>
    <text x="292" y="590" text-anchor="middle" class="pill">open weights</text>
    <rect x="48" y="613" width="89" height="32" rx="9" fill="#071323" stroke="#203148"/>
    <text x="92" y="633" text-anchor="middle" class="pill">reasoning</text>
    <rect x="147" y="613" width="67" height="32" rx="9" fill="#071323" stroke="#203148"/>
    <text x="180" y="633" text-anchor="middle" class="pill">tools</text>
    <rect x="222" y="613" width="66" height="32" rx="9" fill="#071323" stroke="#203148"/>
    <text x="255" y="633" text-anchor="middle" class="pill">vision</text>
    <rect x="296" y="613" width="46" height="32" rx="9" fill="#071323" stroke="#203148"/>
    <text x="319" y="633" text-anchor="middle" class="pill">+4</text>

    <text x="52" y="699" class="section">端点类型</text>
    <line x1="129" y1="695" x2="339" y2="695" stroke="#1b2b42"/>
    <rect x="48" y="720" width="78" height="32" rx="9" fill="#160f38" stroke="#6533ff"/>
    <text x="87" y="740" text-anchor="middle" class="pillActive">全部端点</text>
    <rect x="135" y="720" width="96" height="32" rx="9" fill="#071323" stroke="#203148"/>
    <text x="183" y="740" text-anchor="middle" class="pill">openai   3</text>
  </g>

  <g id="hero-card" class="font" filter="url(#softShadow)">
    <rect x="380" y="79" width="1132" height="125" rx="14" fill="url(#hero)" stroke="url(#purpleStroke)"/>
    <path d="M427 98l29 17v34l-29 17-29-17v-34l29-17Z" fill="url(#logoHex)" filter="url(#purpleGlow)"/>
    <path d="M427 109l18 10v21l-18 11-18-11v-21l18-10Z" stroke="#895eff" opacity="0.75"/>
    <text x="427" y="148" text-anchor="middle" fill="#c359ff" font-size="31" font-weight="900">G</text>
    <text x="473" y="137" fill="#f5f7ff" font-size="24" font-weight="900">全部供应商</text>
    <rect x="588" y="119" width="91" height="25" rx="13" fill="#2c2252"/>
    <text x="634" y="136" text-anchor="middle" fill="#d7ceff" font-size="13" font-weight="700">共 32 个模型</text>
    <text x="473" y="166" fill="#a9b4ca" font-size="13" font-weight="500">查看所有可用的 AI 模型供应商，包括众多知名供应商的模型。</text>
    <line x1="847" y1="120" x2="847" y2="159" stroke="#2a3550" stroke-dasharray="3 3"/>
    <line x1="976" y1="120" x2="976" y2="159" stroke="#2a3550" stroke-dasharray="3 3"/>
    <line x1="1111" y1="120" x2="1111" y2="159" stroke="#2a3550" stroke-dasharray="3 3"/>
    <line x1="1252" y1="120" x2="1252" y2="159" stroke="#2a3550" stroke-dasharray="3 3"/>

    <path d="M891 118l16 9v21l-16 9-16-9v-21l16-9Z" fill="#351776"/>
    <path d="M885 135a6 6 0 0 1 12 0v7h-12v-7Z" stroke="#d359ff" stroke-width="1.4"/>
    <text x="916" y="134" class="count">6</text>
    <text x="916" y="160" class="caption">供应商</text>
    <path d="M1013 118l17 10v21l-17 10-17-10v-21l17-10Z" fill="#0d2359"/>
    <text x="1013" y="145" text-anchor="middle" fill="#4f82ff" font-size="23" font-weight="900">32</text>
    <text x="1040" y="134" class="count">32</text>
    <text x="1040" y="160" class="caption">可用模型</text>
    <path d="M1150 118l17 10v21l-17 10-17-10v-21l17-10Z" fill="#0a394b"/>
    <circle cx="1150" cy="138" r="7" stroke="#19e0e7" stroke-width="1.6"/>
    <path d="M1150 130v16M1142 138h16" stroke="#19e0e7" stroke-width="1.3"/>
    <text x="1175" y="134" class="count">128</text>
    <text x="1175" y="160" class="caption">模型总数</text>
    <path d="M1293 118l17 10v21l-17 10-17-10v-21l17-10Z" fill="#0b3b32"/>
    <circle cx="1293" cy="138" r="9" stroke="#2ae785" stroke-width="1.7"/>
    <path d="M1288 138l4 4 8-9" stroke="#2ae785" stroke-width="1.7" stroke-linecap="round" stroke-linejoin="round"/>
    <text x="1317" y="134" class="count">99.9%</text>
    <text x="1317" y="160" class="caption">可用性</text>
    <rect x="1436" y="112" width="50" height="54" rx="8" fill="#0e315b" filter="url(#purpleGlow)"/>
    <text x="1461" y="150" text-anchor="middle" fill="#f5f9ff" font-size="26" font-weight="900">M</text>
  </g>

  <g id="toolbar" class="font">
    <rect x="380" y="222" width="1132" height="72" fill="url(#controlBg)" stroke="#142238"/>
    <rect x="395" y="237" width="373" height="40" rx="7" fill="#0c1929" stroke="#24364f"/>
    <circle cx="413" cy="257" r="6" stroke="#8b97ae" stroke-width="1.5"/>
    <path d="M418 262l5 5" stroke="#8b97ae" stroke-width="1.5" stroke-linecap="round"/>
    <text x="431" y="262" fill="#7e8a9f" font-size="14" font-weight="500">搜索模型名称或描述</text>
    <rect x="778" y="237" width="87" height="40" rx="6" fill="#170f36" stroke="#6b34ff"/>
    <path d="M797 257h13M797 251h13M801 251v12M814 250l10 14" stroke="#b35cff" stroke-width="1.4" stroke-linecap="round"/>
    <text x="834" y="262" text-anchor="middle" fill="#cf8dff" font-size="14" font-weight="700">搜索</text>
    <rect x="899" y="237" width="87" height="40" rx="6" fill="#160f32" stroke="#4b279d"/>
    <rect x="920" y="251" width="13" height="10" stroke="#9b5cff" stroke-width="1.4"/>
    <path d="M916 255h4" stroke="#9b5cff" stroke-width="1.4"/>
    <text x="956" y="262" text-anchor="middle" fill="#b58cff" font-size="14" font-weight="700">复制</text>
    <line x1="1008" y1="237" x2="1008" y2="277" stroke="#1c2a40"/>
    <text x="1030" y="262" class="label">充值价格显示</text>
    <rect x="1119" y="247" width="36" height="20" rx="10" fill="#763fff"/>
    <circle cx="1145" cy="257" r="8" fill="#fff"/>
    <text x="1200" y="262" class="label">倍率</text>
    <rect x="1243" y="247" width="39" height="20" rx="10" fill="#1a2637"/>
    <circle cx="1253" cy="257" r="8" fill="#fff"/>
    <rect x="1328" y="237" width="105" height="40" rx="8" fill="#071323" stroke="#203148"/>
    <path d="M1342 251h15M1342 257h15M1342 263h15M1340 251h1M1340 257h1M1340 263h1" stroke="#c0c9da" stroke-width="1.4" stroke-linecap="round"/>
    <text x="1391" y="262" text-anchor="middle" fill="#d6deee" font-size="14" font-weight="700">表格视图</text>
    <rect x="1457" y="237" width="38" height="40" rx="8" fill="#071323" stroke="#203148"/>
    <text x="1476" y="262" text-anchor="middle" fill="#d6deee" font-size="15" font-weight="800">M</text>
    <rect x="1288" y="309" width="117" height="36" rx="8" fill="#071323" stroke="#203148"/>
    <text x="1339" y="332" text-anchor="middle" fill="#d6deee" font-size="14" font-weight="700">综合排序</text>
    <path d="M1387 322l5 5 5-5" stroke="#d6deee" stroke-width="1.4" stroke-linecap="round" stroke-linejoin="round"/>
    <rect x="1428" y="309" width="37" height="36" rx="8" fill="#170f36" stroke="#6b34ff"/>
    <rect x="1439" y="320" width="7" height="7" rx="1" stroke="#b375ff" stroke-width="1.5"/>
    <rect x="1449" y="320" width="7" height="7" rx="1" stroke="#b375ff" stroke-width="1.5"/>
    <rect x="1439" y="330" width="7" height="7" rx="1" stroke="#b375ff" stroke-width="1.5"/>
    <rect x="1449" y="330" width="7" height="7" rx="1" stroke="#b375ff" stroke-width="1.5"/>
    <rect x="1475" y="309" width="37" height="36" rx="8" fill="#071323" stroke="#203148"/>
    <path d="M1488 320h13M1488 327h13M1488 334h13" stroke="#a6b1c9" stroke-width="1.5" stroke-linecap="round"/>
  </g>

  <g id="cards" class="font">
    <g transform="translate(380 357)">
      <rect width="260" height="168" rx="9" class="card"/>
      <path d="M28 25c12 4 20 13 28 24-18 2-32-5-43-18 4-6 9-8 15-6Z" fill="#5a73ff"/>
      <path d="M42 19c0 14-12 24-23 31 0-16 8-28 23-31Z" fill="#5a73ff"/>
      <text x="65" y="42" class="cardTitle">DeepSeek-V3.2</text>
      <rect x="190" y="24" width="35" height="22" rx="6" fill="#2a1b56"/>
      <text x="208" y="39" text-anchor="middle" fill="#dca7ff" font-size="12" font-weight="800">推荐</text>
      <rect x="235" y="16" width="10" height="12" rx="2" stroke="#9da9bf"/><rect x="239" y="20" width="10" height="12" rx="2" stroke="#9da9bf"/>
      <text x="24" y="75" class="price">输入价格  $0.7500 / 1M Tokens</text>
      <text x="24" y="103" class="price">输出价格  $0.7500 / 1M Tokens</text>
      <rect x="18" y="128" width="63" height="22" rx="5" fill="#282447"/><text x="50" y="143" text-anchor="middle" class="tag">推理计算</text>
      <rect x="91" y="128" width="44" height="22" rx="5" fill="#282447"/><text x="113" y="143" text-anchor="middle" class="tag">Tools</text>
    </g>
    <g transform="translate(657 357)">
      <rect width="267" height="168" rx="9" class="card"/>
      <circle cx="36" cy="35" r="18" fill="#233568"/><path d="M25 19c19 0 27 16 18 33-20 0-27-16-18-33Z" fill="#4fd5aa"/><path d="M35 19c-12 7-15 24-4 33 17-2 26-17 20-31-5-2-10-2-16-2Z" fill="#5a57ff" opacity="0.85"/>
      <text x="65" y="42" class="cardTitle">Doubao-Seed-2.0...</text>
      <rect x="235" y="16" width="10" height="12" rx="2" stroke="#9da9bf"/><rect x="239" y="20" width="10" height="12" rx="2" stroke="#9da9bf"/>
      <text x="24" y="75" class="price">输入价格  $0.7500 / 1M Tokens</text>
      <text x="24" y="103" class="price">输出价格  $0.7500 / 1M Tokens</text>
      <rect x="18" y="128" width="63" height="22" rx="5" fill="#282447"/><text x="50" y="143" text-anchor="middle" class="tag">推理计算</text>
      <rect x="91" y="128" width="51" height="22" rx="5" fill="#282447"/><text x="116" y="143" text-anchor="middle" class="tag">Vision</text>
    </g>
    <g transform="translate(939 357)">
      <rect width="267" height="168" rx="9" class="card"/>
      <circle cx="36" cy="35" r="18" fill="#233568"/><path d="M25 19c19 0 27 16 18 33-20 0-27-16-18-33Z" fill="#4fd5aa"/><path d="M35 19c-12 7-15 24-4 33 17-2 26-17 20-31-5-2-10-2-16-2Z" fill="#5a57ff" opacity="0.85"/>
      <text x="65" y="42" class="cardTitle">Doubao-Seed-2.0...</text>
      <rect x="235" y="16" width="10" height="12" rx="2" stroke="#9da9bf"/><rect x="239" y="20" width="10" height="12" rx="2" stroke="#9da9bf"/>
      <text x="24" y="75" class="price">输入价格  $0.7500 / 1M Tokens</text>
      <text x="24" y="103" class="price">输出价格  $0.7500 / 1M Tokens</text>
      <rect x="18" y="128" width="63" height="22" rx="5" fill="#282447"/><text x="50" y="143" text-anchor="middle" class="tag">推理计算</text>
      <rect x="91" y="128" width="51" height="22" rx="5" fill="#282447"/><text x="116" y="143" text-anchor="middle" class="tag">Vision</text>
    </g>
    <g transform="translate(1222 357)">
      <rect width="286" height="168" rx="9" class="card"/>
      <circle cx="34" cy="35" r="19" fill="#0e2a64"/><circle cx="34" cy="35" r="2" fill="#527bff"/><g fill="#527bff"><circle cx="24" cy="25" r="2"/><circle cx="34" cy="23" r="2"/><circle cx="44" cy="25" r="2"/><circle cx="21" cy="35" r="2"/><circle cx="47" cy="35" r="2"/><circle cx="24" cy="45" r="2"/><circle cx="34" cy="47" r="2"/><circle cx="44" cy="45" r="2"/></g>
      <text x="65" y="42" class="cardTitle">GLM-4.7</text>
      <rect x="251" y="16" width="10" height="12" rx="2" stroke="#9da9bf"/><rect x="255" y="20" width="10" height="12" rx="2" stroke="#9da9bf"/>
      <text x="24" y="75" class="price">输入价格  $0.7500 / 1M Tokens</text>
      <text x="24" y="103" class="price">输出价格  $0.7500 / 1M Tokens</text>
      <rect x="18" y="128" width="63" height="22" rx="5" fill="#282447"/><text x="50" y="143" text-anchor="middle" class="tag">推理计算</text>
      <rect x="91" y="128" width="44" height="22" rx="5" fill="#282447"/><text x="113" y="143" text-anchor="middle" class="tag">Tools</text>
    </g>

    <g transform="translate(380 542)">
      <rect width="260" height="172" rx="9" class="card"/>
      <circle cx="35" cy="35" r="19" fill="#0e2a64"/><g fill="#527bff"><circle cx="27" cy="27" r="2"/><circle cx="35" cy="25" r="2"/><circle cx="43" cy="27" r="2"/><circle cx="25" cy="35" r="2"/><circle cx="45" cy="35" r="2"/><circle cx="27" cy="43" r="2"/><circle cx="35" cy="45" r="2"/><circle cx="43" cy="43" r="2"/></g>
      <text x="65" y="42" class="cardTitle">GLM-5.1</text>
      <rect x="235" y="16" width="10" height="12" rx="2" stroke="#9da9bf"/><rect x="239" y="20" width="10" height="12" rx="2" stroke="#9da9bf"/>
      <text x="24" y="75" class="price">输入价格  $0.7500 / 1M Tokens</text>
      <text x="24" y="103" class="price">输出价格  $0.7500 / 1M Tokens</text>
      <rect x="18" y="132" width="63" height="22" rx="5" fill="#282447"/><text x="50" y="147" text-anchor="middle" class="tag">推理计算</text>
      <rect x="91" y="132" width="44" height="22" rx="5" fill="#282447"/><text x="113" y="147" text-anchor="middle" class="tag">Tools</text>
    </g>
    <g transform="translate(657 542)">
      <rect width="267" height="172" rx="9" class="card"/>
      <circle cx="35" cy="35" r="19" fill="#17253d"/><path d="M22 25l30 9M20 33l32 10M21 42l25 8" stroke="#dce6f9" stroke-width="4" stroke-linecap="round"/><path d="M24 19l29 9" stroke="#8ca5d8" stroke-width="3" stroke-linecap="round"/>
      <text x="65" y="42" class="cardTitle">Kimi-K2.5</text>
      <rect x="154" y="24" width="35" height="22" rx="6" fill="#2a1b56"/><text x="172" y="39" text-anchor="middle" fill="#dca7ff" font-size="12" font-weight="800">推荐</text>
      <rect x="235" y="16" width="10" height="12" rx="2" stroke="#9da9bf"/><rect x="239" y="20" width="10" height="12" rx="2" stroke="#9da9bf"/>
      <text x="24" y="75" class="price">输入价格  $0.7500 / 1M Tokens</text>
      <text x="24" y="103" class="price">输出价格  $0.7500 / 1M Tokens</text>
      <rect x="18" y="132" width="63" height="22" rx="5" fill="#282447"/><text x="50" y="147" text-anchor="middle" class="tag">推理计算</text>
      <rect x="91" y="132" width="76" height="22" rx="5" fill="#282447"/><text x="129" y="147" text-anchor="middle" class="tag">Reasoning</text>
      <rect x="174" y="132" width="44" height="22" rx="5" fill="#282447"/><text x="196" y="147" text-anchor="middle" class="tag">Tools</text>
    </g>
    <g transform="translate(939 542)">
      <rect width="267" height="172" rx="9" class="card"/>
      <circle cx="35" cy="35" r="19" fill="#17253d"/><path d="M22 25l30 9M20 33l32 10M21 42l25 8" stroke="#dce6f9" stroke-width="4" stroke-linecap="round"/><path d="M24 19l29 9" stroke="#8ca5d8" stroke-width="3" stroke-linecap="round"/>
      <text x="65" y="42" class="cardTitle">Kimi-K2.6</text>
      <rect x="235" y="16" width="10" height="12" rx="2" stroke="#9da9bf"/><rect x="239" y="20" width="10" height="12" rx="2" stroke="#9da9bf"/>
      <text x="24" y="75" class="price">输入价格  $0.7500 / 1M Tokens</text>
      <text x="24" y="103" class="price">输出价格  $0.7500 / 1M Tokens</text>
      <rect x="18" y="132" width="63" height="22" rx="5" fill="#282447"/><text x="50" y="147" text-anchor="middle" class="tag">推理计算</text>
      <rect x="91" y="132" width="76" height="22" rx="5" fill="#282447"/><text x="129" y="147" text-anchor="middle" class="tag">Reasoning</text>
      <rect x="174" y="132" width="44" height="22" rx="5" fill="#282447"/><text x="196" y="147" text-anchor="middle" class="tag">Tools</text>
    </g>
    <g transform="translate(1222 542)">
      <rect width="286" height="172" rx="9" class="card"/>
      <rect x="17" y="16" width="38" height="38" rx="8" fill="#35404f"/><text x="36" y="43" text-anchor="middle" fill="#fff" font-size="25" font-weight="900">M</text>
      <text x="65" y="42" class="cardTitle">MiniMax-M2.5</text>
      <rect x="251" y="16" width="10" height="12" rx="2" stroke="#9da9bf"/><rect x="255" y="20" width="10" height="12" rx="2" stroke="#9da9bf"/>
      <text x="24" y="75" class="price">输入价格  $0.7500 / 1M Tokens</text>
      <text x="24" y="103" class="price">输出价格  $0.7500 / 1M Tokens</text>
      <rect x="18" y="132" width="63" height="22" rx="5" fill="#282447"/><text x="50" y="147" text-anchor="middle" class="tag">推理计算</text>
      <rect x="91" y="132" width="44" height="22" rx="5" fill="#282447"/><text x="113" y="147" text-anchor="middle" class="tag">Tools</text>
      <rect x="143" y="132" width="51" height="22" rx="5" fill="#282447"/><text x="168" y="147" text-anchor="middle" class="tag">Vision</text>
    </g>

    <g transform="translate(380 730)">
      <rect width="260" height="175" rx="9" class="card"/>
      <rect x="17" y="16" width="38" height="38" rx="8" fill="#35404f"/><text x="36" y="43" text-anchor="middle" fill="#fff" font-size="25" font-weight="900">M</text>
      <text x="65" y="42" class="cardTitle">MiniMax-M2.7</text>
      <rect x="190" y="24" width="35" height="22" rx="6" fill="#2a1b56"/><text x="208" y="39" text-anchor="middle" fill="#dca7ff" font-size="12" font-weight="800">推荐</text>
      <rect x="235" y="16" width="10" height="12" rx="2" stroke="#9da9bf"/><rect x="239" y="20" width="10" height="12" rx="2" stroke="#9da9bf"/>
      <text x="24" y="80" class="price">输入价格  $0.3000 / 1M Tokens</text>
      <text x="24" y="108" class="price">输出价格  $0.3000 / 1M Tokens</text>
      <rect x="18" y="137" width="63" height="22" rx="5" fill="#282447"/><text x="50" y="152" text-anchor="middle" class="tag">推理计算</text>
      <rect x="91" y="137" width="68" height="22" rx="5" fill="#282447"/><text x="125" y="152" text-anchor="middle" class="tag">Reasoning</text>
      <rect x="164" y="137" width="83" height="22" rx="5" fill="#282447"/><text x="205" y="152" text-anchor="middle" class="tag">Open Weights</text>
    </g>
    <g transform="translate(657 730)">
      <rect width="267" height="175" rx="9" class="card"/>
      <circle cx="35" cy="35" r="19" fill="#060c17"/><path d="M20 24l33 10M18 32l34 11M22 43l25 8" stroke="#f1f5ff" stroke-width="4" stroke-linecap="round"/><path d="M29 20l23 7" stroke="#7d879b" stroke-width="3" stroke-linecap="round"/>
      <text x="65" y="42" class="cardTitle">Moonshot-v1-8k</text>
      <rect x="235" y="16" width="10" height="12" rx="2" stroke="#9da9bf"/><rect x="239" y="20" width="10" height="12" rx="2" stroke="#9da9bf"/>
      <text x="24" y="80" class="price">输入价格  $0.6000 / 1M Tokens</text>
      <text x="24" y="108" class="price">输出价格  $0.6000 / 1M Tokens</text>
      <rect x="18" y="137" width="63" height="22" rx="5" fill="#282447"/><text x="50" y="152" text-anchor="middle" class="tag">推理计算</text>
      <rect x="91" y="137" width="44" height="22" rx="5" fill="#282447"/><text x="113" y="152" text-anchor="middle" class="tag">Tools</text>
      <rect x="143" y="137" width="51" height="22" rx="5" fill="#282447"/><text x="168" y="152" text-anchor="middle" class="tag">Vision</text>
    </g>
    <g transform="translate(939 730)">
      <rect width="267" height="175" rx="9" class="card"/>
      <path d="M35 25c12 4 20 13 28 24-18 2-32-5-43-18 4-6 9-8 15-6Z" fill="#5a73ff"/>
      <path d="M49 19c0 14-12 24-23 31 0-16 8-28 23-31Z" fill="#5a73ff"/>
      <text x="65" y="42" class="cardTitle">DeepSeek-Coder-V2</text>
      <rect x="235" y="16" width="10" height="12" rx="2" stroke="#9da9bf"/><rect x="239" y="20" width="10" height="12" rx="2" stroke="#9da9bf"/>
      <text x="24" y="80" class="price">输入价格  $0.4000 / 1M Tokens</text>
      <text x="24" y="108" class="price">输出价格  $0.4000 / 1M Tokens</text>
      <rect x="18" y="137" width="63" height="22" rx="5" fill="#282447"/><text x="50" y="152" text-anchor="middle" class="tag">推理计算</text>
      <rect x="91" y="137" width="44" height="22" rx="5" fill="#282447"/><text x="113" y="152" text-anchor="middle" class="tag">Tools</text>
    </g>
    <g transform="translate(1222 730)">
      <rect width="286" height="175" rx="9" fill="#081524" stroke="#4e3b86" stroke-dasharray="2 3"/>
      <circle cx="143" cy="61" r="23" fill="#162339"/>
      <path d="M143 49v24M131 61h24" stroke="#bbc6d8" stroke-width="1.6" stroke-linecap="round"/>
      <text x="143" y="107" text-anchor="middle" fill="#f2f5ff" font-size="17" font-weight="800">添加模型</text>
      <text x="143" y="132" text-anchor="middle" fill="#8e9ab3" font-size="13" font-weight="600">提交模型接入申请</text>
    </g>
  </g>

  <g id="pagination" class="font">
    <path d="M720 917l-7 7 7 7" stroke="#7d899f" stroke-width="1.5" stroke-linecap="round" stroke-linejoin="round"/>
    <rect x="744" y="899" width="36" height="36" rx="7" fill="#130d33" stroke="#6c37ff"/>
    <text x="762" y="923" text-anchor="middle" fill="#f1edff" font-size="15" font-weight="800">1</text>
    <rect x="794" y="899" width="36" height="36" rx="7" fill="#071323" stroke="#203148"/>
    <text x="812" y="923" text-anchor="middle" fill="#d6deee" font-size="15" font-weight="700">2</text>
    <rect x="844" y="899" width="36" height="36" rx="7" fill="#071323" stroke="#203148"/>
    <text x="862" y="923" text-anchor="middle" fill="#d6deee" font-size="15" font-weight="700">3</text>
    <text x="907" y="922" text-anchor="middle" fill="#d6deee" font-size="18">...</text>
    <rect x="936" y="899" width="142" height="36" rx="7" fill="#071323" stroke="#203148"/>
    <text x="972" y="923" fill="#d6deee" font-size="14" font-weight="700">每页条数:</text>
    <text x="1025" y="923" fill="#f1f5ff" font-size="14" font-weight="800">12</text>
    <path d="M1054 916l5 5 5-5" stroke="#d6deee" stroke-width="1.4" stroke-linecap="round" stroke-linejoin="round"/>
    <text x="812" y="965" fill="#8e9ab3" font-size="13" font-weight="600">共 32 个模型</text>
  </g>
</svg>
